# xmcd CD database file generated by freedbAccess_ocx
#
# Track frame offsets:
#       182
#       9225
#       25057
#       36482
#       52525
#       70887
#       92047
#       102657
#       116357
#       132795
#       148232
#       162412
#       176292
#       192025
#
# Disc length: 2736 seconds
#
# Revision: 0
# Processed by: cddbd v1.4PL0 Copyright (c) Steve Scherf et al.
# Submitted via: CDnGo 2.00
#
DISCID=b20aae0e
DTITLE=Petra Cernocka - Nakladak
DYEAR=1994
DGENRE=Country
TTITLE0=Bejby, to chce klid
TTITLE1=Mile planin
TTITLE2=Modry dziny
TTITLE3=Rakosi
TTITLE4=Jednou otevru si cukrarnu
TTITLE5=Jsem poklad tvuj
TTITLE6=Chci byt prave s nim
TTITLE7=Nakladak
TTITLE8=Vypujceny byt
TTITLE9=Jen my vime jak
TTITLE10=Nevzpominam
TTITLE11=Zehlit krajky, to je prace
TTITLE12=Dobrou noc
TTITLE13=Neni fer
EXTD=
EXTT0=
EXTT1=
EXTT2=
EXTT3=
EXTT4=
EXTT5=
EXTT6=
EXTT7=
EXTT8=
EXTT9=
EXTT10=
EXTT11=
EXTT12=
EXTT13=
PLAYORDER=
